<svg width="160" height="40" viewBox="0 0 160 40" fill="none" xmlns="http://www.w3.org/2000/svg">
<rect width="160" height="40" rx="15" fill="#252525"/>
<path d="M38.1594 19.1884H52.6522C52.8841 19.1884 53 19.1884 53 18.9855V18.5797V18.5797C53 18.3372 52.6482 18.3493 52.4132 18.2896C45.8706 16.627 40.7621 12.2555 38.9566 6.53795C38.8899 6.32654 38.7377 6.15153 38.5345 6.06267V6.06267C38.4401 6.02134 38.3381 6 38.235 6H38.0435C37.9275 6 37.8116 6.10145 37.8116 6.30435V18.9855C37.8116 19.087 37.8116 19.1884 38.0435 19.1884H38.1594ZM38.1594 34H38.4474C38.5607 34 38.6702 33.9589 38.7555 33.8843V33.8843C38.8206 33.8273 38.8685 33.7532 38.8948 33.6707C40.7657 27.8026 45.8767 23.2226 52.5736 21.6674C52.6987 21.6383 52.8108 21.5671 52.8887 21.465V21.465C52.9609 21.3702 53 21.2543 53 21.1351V21.0145C53 20.913 52.8841 20.7101 52.6522 20.7101H38.387C38.2436 20.7101 38.1084 20.7771 38.0215 20.8911V20.8911C37.9606 20.9712 37.9275 21.069 37.9275 21.1696V33.6957C37.9275 33.8985 37.9275 34 38.1594 34ZM35.3523 33.9181C35.4443 33.9717 35.5488 34 35.6553 34H35.8406C35.9565 34 36.0725 33.8985 36.0725 33.6957V21.0145C36.0725 20.913 36.0725 20.7101 35.8406 20.7101H21.3478C21.1159 20.7101 21 20.913 21 21.0145V21.4203V21.4203C21 21.6628 21.3521 21.6489 21.588 21.7056C28.1699 23.2869 33.3003 27.7958 35.0761 33.5669C35.1214 33.7142 35.2192 33.8404 35.3523 33.9181V33.9181ZM21.3478 19.1884H35.8406C35.9565 19.1884 36.0725 19.1884 36.0725 18.9855V6.30435C36.0725 6.10145 36.0725 6 35.8406 6H35.3768V6C35.1353 6 35.1093 6.32056 35.0313 6.54916C33.0984 12.2173 27.9269 16.7944 21.4255 18.332C21.3008 18.3615 21.1893 18.4327 21.1117 18.5346V18.5346C21.0392 18.6297 21 18.7459 21 18.8654V18.9855C21 19.087 21.1159 19.1884 21.3478 19.1884Z" fill="url(#paint0_linear_30_6)"/>
<path d="M71.904 10.672C72.96 10.672 73.824 10.832 74.496 11.152C75.184 11.456 75.792 11.816 76.32 12.232C76.64 12.472 76.88 12.504 77.04 12.328C77.216 12.136 77.336 11.696 77.4 11.008H77.952C77.92 11.6 77.896 12.32 77.88 13.168C77.864 14.016 77.856 15.136 77.856 16.528H77.304C77.192 15.84 77.088 15.296 76.992 14.896C76.896 14.48 76.776 14.128 76.632 13.84C76.504 13.552 76.328 13.264 76.104 12.976C75.608 12.32 74.984 11.848 74.232 11.56C73.48 11.256 72.688 11.104 71.856 11.104C71.072 11.104 70.36 11.304 69.72 11.704C69.096 12.088 68.552 12.648 68.088 13.384C67.64 14.12 67.288 15.008 67.032 16.048C66.792 17.088 66.672 18.256 66.672 19.552C66.672 20.896 66.808 22.088 67.08 23.128C67.352 24.152 67.728 25.016 68.208 25.72C68.704 26.424 69.28 26.96 69.936 27.328C70.608 27.68 71.328 27.856 72.096 27.856C72.816 27.856 73.568 27.712 74.352 27.424C75.136 27.136 75.752 26.672 76.2 26.032C76.552 25.568 76.792 25.064 76.92 24.52C77.064 23.976 77.192 23.216 77.304 22.24H77.856C77.856 23.696 77.864 24.872 77.88 25.768C77.896 26.648 77.92 27.392 77.952 28H77.4C77.336 27.312 77.224 26.88 77.064 26.704C76.92 26.528 76.672 26.552 76.32 26.776C75.728 27.192 75.096 27.56 74.424 27.88C73.768 28.184 72.92 28.336 71.88 28.336C70.36 28.336 69.024 27.992 67.872 27.304C66.736 26.616 65.848 25.624 65.208 24.328C64.584 23.032 64.272 21.472 64.272 19.648C64.272 17.856 64.6 16.288 65.256 14.944C65.912 13.6 66.808 12.552 67.944 11.8C69.096 11.048 70.416 10.672 71.904 10.672ZM86.0994 15.304C87.1234 15.304 88.0434 15.528 88.8594 15.976C89.6754 16.424 90.3234 17.128 90.8034 18.088C91.2994 19.048 91.5474 20.296 91.5474 21.832C91.5474 23.368 91.2994 24.616 90.8034 25.576C90.3234 26.52 89.6754 27.216 88.8594 27.664C88.0434 28.112 87.1234 28.336 86.0994 28.336C85.0914 28.336 84.1714 28.112 83.3394 27.664C82.5234 27.216 81.8674 26.52 81.3714 25.576C80.8914 24.616 80.6514 23.368 80.6514 21.832C80.6514 20.296 80.8914 19.048 81.3714 18.088C81.8674 17.128 82.5234 16.424 83.3394 15.976C84.1714 15.528 85.0914 15.304 86.0994 15.304ZM86.0994 15.784C85.1874 15.784 84.4354 16.256 83.8434 17.2C83.2674 18.144 82.9794 19.688 82.9794 21.832C82.9794 23.976 83.2674 25.52 83.8434 26.464C84.4354 27.392 85.1874 27.856 86.0994 27.856C87.0114 27.856 87.7554 27.392 88.3314 26.464C88.9234 25.52 89.2194 23.976 89.2194 21.832C89.2194 19.688 88.9234 18.144 88.3314 17.2C87.7554 16.256 87.0114 15.784 86.0994 15.784ZM101.432 15.304C102.04 15.304 102.544 15.384 102.944 15.544C103.36 15.704 103.704 15.928 103.976 16.216C104.28 16.536 104.496 16.936 104.624 17.416C104.752 17.896 104.816 18.544 104.816 19.36V25.768C104.816 26.44 104.952 26.896 105.224 27.136C105.512 27.376 105.984 27.496 106.64 27.496V28C106.368 27.984 105.952 27.968 105.392 27.952C104.832 27.92 104.288 27.904 103.76 27.904C103.232 27.904 102.712 27.92 102.2 27.952C101.704 27.968 101.328 27.984 101.072 28V27.496C101.648 27.496 102.056 27.376 102.296 27.136C102.536 26.896 102.656 26.44 102.656 25.768V18.832C102.656 18.336 102.616 17.88 102.536 17.464C102.456 17.048 102.272 16.712 101.984 16.456C101.712 16.2 101.288 16.072 100.712 16.072C100.04 16.072 99.4479 16.264 98.9359 16.648C98.4399 17.032 98.0479 17.56 97.7599 18.232C97.4879 18.888 97.3519 19.624 97.3519 20.44V25.768C97.3519 26.44 97.4719 26.896 97.7119 27.136C97.9519 27.376 98.3599 27.496 98.9359 27.496V28C98.6799 27.984 98.2959 27.968 97.7839 27.952C97.2879 27.92 96.7759 27.904 96.2479 27.904C95.7199 27.904 95.1759 27.92 94.6159 27.952C94.0559 27.968 93.6399 27.984 93.3679 28V27.496C94.0239 27.496 94.4879 27.376 94.7599 27.136C95.0479 26.896 95.1919 26.44 95.1919 25.768V18.256C95.1919 17.536 95.0639 17.008 94.8079 16.672C94.5519 16.32 94.0719 16.144 93.3679 16.144V15.64C93.8799 15.688 94.3759 15.712 94.8559 15.712C95.3199 15.712 95.7599 15.688 96.1759 15.64C96.6079 15.576 96.9999 15.488 97.3519 15.376V18.208C97.7679 17.12 98.3439 16.368 99.0799 15.952C99.8319 15.52 100.616 15.304 101.432 15.304ZM111.552 11.656V15.664H115.104V16.144H111.552V25.432C111.552 26.184 111.688 26.712 111.96 27.016C112.232 27.32 112.608 27.472 113.088 27.472C113.568 27.472 113.984 27.28 114.336 26.896C114.688 26.496 114.992 25.832 115.248 24.904L115.728 25.024C115.568 25.952 115.248 26.736 114.768 27.376C114.304 28.016 113.584 28.336 112.608 28.336C112.064 28.336 111.616 28.264 111.264 28.12C110.912 27.992 110.6 27.8 110.328 27.544C109.976 27.176 109.728 26.736 109.584 26.224C109.456 25.712 109.392 25.032 109.392 24.184V16.144H107.088V15.664H109.392V11.992C109.792 11.976 110.176 11.944 110.544 11.896C110.912 11.848 111.248 11.768 111.552 11.656ZM123.637 15.304C124.069 15.304 124.445 15.392 124.765 15.568C125.101 15.744 125.357 15.976 125.533 16.264C125.725 16.536 125.821 16.848 125.821 17.2C125.821 17.6 125.693 17.952 125.437 18.256C125.197 18.56 124.869 18.712 124.453 18.712C124.117 18.712 123.821 18.608 123.565 18.4C123.309 18.176 123.181 17.864 123.181 17.464C123.181 17.16 123.261 16.904 123.421 16.696C123.597 16.472 123.789 16.296 123.997 16.168C123.885 16.008 123.717 15.928 123.493 15.928C122.997 15.928 122.541 16.08 122.125 16.384C121.709 16.672 121.357 17.048 121.069 17.512C120.781 17.976 120.557 18.472 120.397 19C120.237 19.512 120.157 19.992 120.157 20.44V25.528C120.157 26.312 120.381 26.84 120.829 27.112C121.293 27.368 121.917 27.496 122.701 27.496V28C122.333 27.984 121.813 27.968 121.141 27.952C120.469 27.92 119.757 27.904 119.005 27.904C118.461 27.904 117.917 27.92 117.373 27.952C116.845 27.968 116.445 27.984 116.173 28V27.496C116.829 27.496 117.293 27.376 117.565 27.136C117.853 26.896 117.997 26.44 117.997 25.768V18.256C117.997 17.536 117.869 17.008 117.613 16.672C117.357 16.32 116.877 16.144 116.173 16.144V15.64C116.685 15.688 117.181 15.712 117.661 15.712C118.125 15.712 118.565 15.688 118.981 15.64C119.413 15.576 119.805 15.488 120.157 15.376V18.376C120.333 17.912 120.581 17.448 120.901 16.984C121.237 16.504 121.637 16.104 122.101 15.784C122.565 15.464 123.077 15.304 123.637 15.304ZM130.268 28.168C129.612 28.168 129.044 28.048 128.564 27.808C128.084 27.552 127.716 27.2 127.46 26.752C127.22 26.304 127.1 25.784 127.1 25.192C127.1 24.488 127.26 23.912 127.58 23.464C127.916 23.016 128.34 22.656 128.852 22.384C129.364 22.112 129.9 21.888 130.46 21.712C131.036 21.52 131.58 21.344 132.092 21.184C132.604 21.008 133.02 20.808 133.34 20.584C133.676 20.36 133.844 20.064 133.844 19.696V18.208C133.844 17.536 133.74 17.024 133.532 16.672C133.34 16.32 133.076 16.088 132.74 15.976C132.404 15.848 132.028 15.784 131.612 15.784C131.212 15.784 130.78 15.84 130.316 15.952C129.868 16.064 129.508 16.296 129.236 16.648C129.54 16.712 129.804 16.872 130.028 17.128C130.252 17.384 130.364 17.712 130.364 18.112C130.364 18.512 130.236 18.832 129.98 19.072C129.724 19.296 129.396 19.408 128.996 19.408C128.532 19.408 128.188 19.264 127.964 18.976C127.756 18.672 127.652 18.336 127.652 17.968C127.652 17.552 127.756 17.216 127.964 16.96C128.172 16.704 128.436 16.464 128.756 16.24C129.124 15.984 129.596 15.768 130.172 15.592C130.764 15.4 131.428 15.304 132.164 15.304C132.82 15.304 133.38 15.384 133.844 15.544C134.308 15.688 134.692 15.904 134.996 16.192C135.412 16.576 135.684 17.048 135.812 17.608C135.94 18.152 136.004 18.808 136.004 19.576V26.248C136.004 26.648 136.06 26.936 136.172 27.112C136.3 27.288 136.492 27.376 136.748 27.376C136.924 27.376 137.092 27.336 137.252 27.256C137.412 27.176 137.604 27.048 137.828 26.872L138.092 27.28C137.756 27.536 137.436 27.752 137.132 27.928C136.828 28.088 136.42 28.168 135.908 28.168C135.444 28.168 135.06 28.088 134.756 27.928C134.452 27.768 134.22 27.536 134.06 27.232C133.916 26.912 133.844 26.512 133.844 26.032C133.412 26.752 132.892 27.288 132.284 27.64C131.692 27.992 131.02 28.168 130.268 28.168ZM131.132 27.208C131.66 27.208 132.148 27.056 132.596 26.752C133.06 26.448 133.476 25.992 133.844 25.384V20.68C133.652 20.952 133.372 21.184 133.004 21.376C132.636 21.552 132.236 21.736 131.804 21.928C131.372 22.104 130.956 22.32 130.556 22.576C130.172 22.816 129.852 23.136 129.596 23.536C129.34 23.936 129.212 24.456 129.212 25.096C129.212 25.736 129.38 26.248 129.716 26.632C130.068 27.016 130.54 27.208 131.132 27.208Z" fill="white"/>
<defs>
<linearGradient id="paint0_linear_30_6" x1="33.7536" y1="6.50725" x2="46.9674" y2="32.3955" gradientUnits="userSpaceOnUse">
<stop stop-color="#FF8A00"/>
<stop offset="1" stop-color="#CBC085"/>
</linearGradient>
</defs>
</svg>
