<svg width="283" height="43" viewBox="0 0 283 43" fill="none" xmlns="http://www.w3.org/2000/svg">
<rect width="283" height="43" rx="15" fill="#252525"/>
<path d="M37.1594 20.1884H51.6522C51.8841 20.1884 52 20.1884 52 19.9855V19.5797V19.5797C52 19.3372 51.6482 19.3493 51.4132 19.2896C44.8706 17.627 39.7621 13.2555 37.9566 7.53795C37.8899 7.32654 37.7377 7.15153 37.5345 7.06267V7.06267C37.4401 7.02134 37.3381 7 37.235 7H37.0435C36.9275 7 36.8116 7.10145 36.8116 7.30435V19.9855C36.8116 20.087 36.8116 20.1884 37.0435 20.1884H37.1594ZM37.1594 35H37.4474C37.5607 35 37.6702 34.9589 37.7555 34.8843V34.8843C37.8206 34.8273 37.8685 34.7532 37.8948 34.6707C39.7657 28.8026 44.8767 24.2226 51.5736 22.6674C51.6987 22.6383 51.8108 22.5671 51.8887 22.465V22.465C51.9609 22.3702 52 22.2543 52 22.1351V22.0145C52 21.913 51.8841 21.7101 51.6522 21.7101H37.387C37.2436 21.7101 37.1084 21.7771 37.0215 21.8911V21.8911C36.9606 21.9712 36.9275 22.069 36.9275 22.1696V34.6957C36.9275 34.8985 36.9275 35 37.1594 35ZM34.3523 34.9181C34.4443 34.9717 34.5488 35 34.6553 35H34.8406C34.9565 35 35.0725 34.8985 35.0725 34.6957V22.0145C35.0725 21.913 35.0725 21.7101 34.8406 21.7101H20.3478C20.1159 21.7101 20 21.913 20 22.0145V22.4203V22.4203C20 22.6628 20.3521 22.6489 20.588 22.7056C27.1699 24.2869 32.3003 28.7958 34.0761 34.5669C34.1214 34.7142 34.2192 34.8404 34.3523 34.9181V34.9181ZM20.3478 20.1884H34.8406C34.9565 20.1884 35.0725 20.1884 35.0725 19.9855V7.30435C35.0725 7.10145 35.0725 7 34.8406 7H34.3768V7C34.1353 7 34.1093 7.32056 34.0313 7.54916C32.0984 13.2173 26.9269 17.7944 20.4255 19.332C20.3008 19.3615 20.1893 19.4327 20.1117 19.5346V19.5346C20.0392 19.6297 20 19.7459 20 19.8654V19.9855C20 20.087 20.1159 20.1884 20.3478 20.1884Z" fill="url(#paint0_linear_13_8)"/>
<path d="M73.04 29V28.52C73.584 28.488 73.992 28.424 74.264 28.328C74.552 28.232 74.744 28.04 74.84 27.752C74.936 27.464 74.984 27.032 74.984 26.456V14.552C74.984 13.96 74.936 13.528 74.84 13.256C74.744 12.968 74.552 12.776 74.264 12.68C73.992 12.568 73.584 12.504 73.04 12.488V12.008C73.408 12.024 73.872 12.04 74.432 12.056C74.992 12.072 75.544 12.08 76.088 12.08C76.712 12.08 77.296 12.072 77.84 12.056C78.384 12.04 78.824 12.024 79.16 12.008V12.488C78.616 12.504 78.2 12.568 77.912 12.68C77.64 12.776 77.456 12.968 77.36 13.256C77.264 13.528 77.216 13.96 77.216 14.552V26.456C77.216 27.032 77.264 27.464 77.36 27.752C77.456 28.04 77.64 28.232 77.912 28.328C78.2 28.424 78.616 28.488 79.16 28.52V29C78.824 28.968 78.384 28.952 77.84 28.952C77.296 28.936 76.712 28.928 76.088 28.928C75.544 28.928 74.992 28.936 74.432 28.952C73.872 28.952 73.408 28.968 73.04 29ZM63.008 29V28.52C63.552 28.488 63.96 28.424 64.232 28.328C64.52 28.232 64.712 28.04 64.808 27.752C64.904 27.464 64.952 27.032 64.952 26.456V14.552C64.952 13.96 64.904 13.528 64.808 13.256C64.712 12.968 64.52 12.776 64.232 12.68C63.96 12.568 63.552 12.504 63.008 12.488V12.008C63.344 12.024 63.784 12.04 64.328 12.056C64.872 12.072 65.456 12.08 66.08 12.08C66.64 12.08 67.192 12.072 67.736 12.056C68.296 12.04 68.76 12.024 69.128 12.008V12.488C68.584 12.504 68.168 12.568 67.88 12.68C67.608 12.776 67.424 12.968 67.328 13.256C67.232 13.528 67.184 13.96 67.184 14.552V26.456C67.184 27.032 67.232 27.464 67.328 27.752C67.424 28.04 67.608 28.232 67.88 28.328C68.168 28.424 68.584 28.488 69.128 28.52V29C68.76 28.968 68.296 28.952 67.736 28.952C67.192 28.936 66.64 28.928 66.08 28.928C65.456 28.928 64.872 28.936 64.328 28.952C63.784 28.952 63.344 28.968 63.008 29ZM66.344 20.696V20.216H75.824V20.696H66.344ZM83.5961 10.64C84.0121 10.64 84.3721 10.792 84.6761 11.096C84.9801 11.4 85.1321 11.76 85.1321 12.176C85.1321 12.592 84.9801 12.952 84.6761 13.256C84.3721 13.56 84.0121 13.712 83.5961 13.712C83.1801 13.712 82.8201 13.56 82.5161 13.256C82.2121 12.952 82.0601 12.592 82.0601 12.176C82.0601 11.76 82.2121 11.4 82.5161 11.096C82.8201 10.792 83.1801 10.64 83.5961 10.64ZM84.8441 16.376V26.768C84.8441 27.44 84.9801 27.896 85.2521 28.136C85.5401 28.376 86.0121 28.496 86.6681 28.496V29C86.3961 28.984 85.9801 28.968 85.4201 28.952C84.8761 28.92 84.3241 28.904 83.7641 28.904C83.2201 28.904 82.6681 28.92 82.1081 28.952C81.5481 28.968 81.1321 28.984 80.8601 29V28.496C81.5161 28.496 81.9801 28.376 82.2521 28.136C82.5401 27.896 82.6841 27.44 82.6841 26.768V19.256C82.6841 18.536 82.5561 18.008 82.3001 17.672C82.0441 17.32 81.5641 17.144 80.8601 17.144V16.64C81.3721 16.688 81.8681 16.712 82.3481 16.712C82.8121 16.712 83.2521 16.688 83.6681 16.64C84.1001 16.576 84.4921 16.488 84.8441 16.376ZM95.3553 16.304C95.7873 16.304 96.1633 16.392 96.4833 16.568C96.8193 16.744 97.0753 16.976 97.2513 17.264C97.4433 17.536 97.5393 17.848 97.5393 18.2C97.5393 18.6 97.4113 18.952 97.1553 19.256C96.9153 19.56 96.5873 19.712 96.1713 19.712C95.8353 19.712 95.5393 19.608 95.2833 19.4C95.0273 19.176 94.8993 18.864 94.8993 18.464C94.8993 18.16 94.9793 17.904 95.1393 17.696C95.3153 17.472 95.5073 17.296 95.7153 17.168C95.6033 17.008 95.4353 16.928 95.2113 16.928C94.7153 16.928 94.2593 17.08 93.8433 17.384C93.4273 17.672 93.0753 18.048 92.7873 18.512C92.4993 18.976 92.2753 19.472 92.1153 20C91.9553 20.512 91.8753 20.992 91.8753 21.44V26.528C91.8753 27.312 92.0993 27.84 92.5473 28.112C93.0113 28.368 93.6353 28.496 94.4193 28.496V29C94.0513 28.984 93.5313 28.968 92.8593 28.952C92.1873 28.92 91.4753 28.904 90.7233 28.904C90.1793 28.904 89.6353 28.92 89.0913 28.952C88.5633 28.968 88.1633 28.984 87.8913 29V28.496C88.5473 28.496 89.0113 28.376 89.2833 28.136C89.5713 27.896 89.7153 27.44 89.7153 26.768V19.256C89.7153 18.536 89.5873 18.008 89.3313 17.672C89.0753 17.32 88.5953 17.144 87.8913 17.144V16.64C88.4033 16.688 88.8993 16.712 89.3793 16.712C89.8433 16.712 90.2833 16.688 90.6993 16.64C91.1313 16.576 91.5233 16.488 91.8753 16.376V19.376C92.0513 18.912 92.2993 18.448 92.6193 17.984C92.9553 17.504 93.3553 17.104 93.8193 16.784C94.2833 16.464 94.7953 16.304 95.3553 16.304ZM103.942 16.304C105.35 16.304 106.446 16.736 107.23 17.6C108.03 18.448 108.43 19.776 108.43 21.584H99.9581L99.9341 21.128H106.126C106.158 20.344 106.094 19.624 105.934 18.968C105.774 18.296 105.518 17.76 105.166 17.36C104.83 16.96 104.39 16.76 103.846 16.76C103.11 16.76 102.454 17.128 101.878 17.864C101.318 18.6 100.982 19.768 100.87 21.368L100.942 21.464C100.91 21.704 100.886 21.968 100.87 22.256C100.854 22.544 100.846 22.832 100.846 23.12C100.846 24.208 101.022 25.144 101.374 25.928C101.726 26.712 102.182 27.312 102.742 27.728C103.318 28.128 103.91 28.328 104.518 28.328C104.998 28.328 105.454 28.256 105.886 28.112C106.318 27.952 106.718 27.696 107.086 27.344C107.454 26.992 107.774 26.52 108.046 25.928L108.526 26.12C108.35 26.648 108.062 27.16 107.662 27.656C107.262 28.152 106.758 28.56 106.15 28.88C105.542 29.184 104.838 29.336 104.038 29.336C102.886 29.336 101.894 29.072 101.062 28.544C100.246 28.016 99.6141 27.288 99.1661 26.36C98.7341 25.416 98.5181 24.336 98.5181 23.12C98.5181 21.712 98.7421 20.504 99.1901 19.496C99.6381 18.472 100.27 17.688 101.086 17.144C101.902 16.584 102.854 16.304 103.942 16.304ZM124.147 16.304C124.707 16.304 125.195 16.384 125.611 16.544C126.027 16.704 126.371 16.928 126.643 17.216C126.947 17.536 127.155 17.952 127.267 18.464C127.379 18.976 127.435 19.608 127.435 20.36V26.768C127.435 27.44 127.571 27.896 127.843 28.136C128.131 28.376 128.603 28.496 129.259 28.496V29C128.987 28.984 128.571 28.968 128.011 28.952C127.451 28.92 126.907 28.904 126.379 28.904C125.851 28.904 125.331 28.92 124.819 28.952C124.323 28.968 123.947 28.984 123.691 29V28.496C124.267 28.496 124.675 28.376 124.915 28.136C125.155 27.896 125.275 27.44 125.275 26.768V19.832C125.275 19.336 125.243 18.88 125.179 18.464C125.115 18.048 124.955 17.712 124.699 17.456C124.443 17.2 124.027 17.072 123.451 17.072C122.827 17.072 122.267 17.264 121.771 17.648C121.291 18.032 120.907 18.56 120.619 19.232C120.347 19.888 120.211 20.624 120.211 21.44V26.768C120.211 27.44 120.331 27.896 120.571 28.136C120.811 28.376 121.219 28.496 121.795 28.496V29C121.539 28.984 121.155 28.968 120.643 28.952C120.147 28.92 119.635 28.904 119.107 28.904C118.579 28.904 118.035 28.92 117.475 28.952C116.915 28.968 116.499 28.984 116.227 29V28.496C116.883 28.496 117.347 28.376 117.619 28.136C117.907 27.896 118.051 27.44 118.051 26.768V19.256C118.051 18.536 117.923 18.008 117.667 17.672C117.411 17.32 116.931 17.144 116.227 17.144V16.64C116.739 16.688 117.235 16.712 117.715 16.712C118.179 16.712 118.619 16.688 119.035 16.64C119.467 16.576 119.859 16.488 120.211 16.376V19.208C120.627 18.168 121.195 17.424 121.915 16.976C122.635 16.528 123.379 16.304 124.147 16.304ZM131.371 16.304C131.931 16.304 132.419 16.384 132.835 16.544C133.251 16.704 133.595 16.928 133.867 17.216C134.171 17.536 134.379 17.952 134.491 18.464C134.603 18.976 134.659 19.608 134.659 20.36V26.768C134.659 27.44 134.795 27.896 135.067 28.136C135.355 28.376 135.827 28.496 136.483 28.496V29C136.211 28.984 135.795 28.968 135.235 28.952C134.675 28.92 134.131 28.904 133.603 28.904C133.075 28.904 132.555 28.92 132.043 28.952C131.547 28.968 131.171 28.984 130.915 29V28.496C131.491 28.496 131.899 28.376 132.139 28.136C132.379 27.896 132.499 27.44 132.499 26.768V19.832C132.499 19.336 132.467 18.88 132.403 18.464C132.339 18.048 132.179 17.712 131.923 17.456C131.667 17.2 131.251 17.072 130.675 17.072C130.051 17.072 129.491 17.264 128.995 17.648C128.515 18.032 128.131 18.552 127.843 19.208C127.571 19.864 127.435 20.6 127.435 21.416L127.363 19.184C127.795 18.08 128.379 17.328 129.115 16.928C129.851 16.512 130.603 16.304 131.371 16.304ZM143.364 16.304C144.772 16.304 145.868 16.736 146.652 17.6C147.452 18.448 147.852 19.776 147.852 21.584H139.38L139.356 21.128H145.548C145.58 20.344 145.516 19.624 145.356 18.968C145.196 18.296 144.94 17.76 144.588 17.36C144.252 16.96 143.812 16.76 143.268 16.76C142.532 16.76 141.876 17.128 141.3 17.864C140.74 18.6 140.404 19.768 140.292 21.368L140.364 21.464C140.332 21.704 140.308 21.968 140.292 22.256C140.276 22.544 140.268 22.832 140.268 23.12C140.268 24.208 140.444 25.144 140.796 25.928C141.148 26.712 141.604 27.312 142.164 27.728C142.74 28.128 143.332 28.328 143.94 28.328C144.42 28.328 144.876 28.256 145.308 28.112C145.74 27.952 146.14 27.696 146.508 27.344C146.876 26.992 147.196 26.52 147.468 25.928L147.948 26.12C147.772 26.648 147.484 27.16 147.084 27.656C146.684 28.152 146.18 28.56 145.572 28.88C144.964 29.184 144.26 29.336 143.46 29.336C142.308 29.336 141.316 29.072 140.484 28.544C139.668 28.016 139.036 27.288 138.588 26.36C138.156 25.416 137.94 24.336 137.94 23.12C137.94 21.712 138.164 20.504 138.612 19.496C139.06 18.472 139.692 17.688 140.508 17.144C141.324 16.584 142.276 16.304 143.364 16.304ZM161.529 16.304C162.553 16.304 163.473 16.528 164.289 16.976C165.105 17.424 165.753 18.128 166.233 19.088C166.729 20.048 166.977 21.296 166.977 22.832C166.977 24.368 166.729 25.616 166.233 26.576C165.753 27.52 165.105 28.216 164.289 28.664C163.473 29.112 162.553 29.336 161.529 29.336C160.521 29.336 159.601 29.112 158.769 28.664C157.953 28.216 157.297 27.52 156.801 26.576C156.321 25.616 156.081 24.368 156.081 22.832C156.081 21.296 156.321 20.048 156.801 19.088C157.297 18.128 157.953 17.424 158.769 16.976C159.601 16.528 160.521 16.304 161.529 16.304ZM161.529 16.784C160.617 16.784 159.865 17.256 159.273 18.2C158.697 19.144 158.409 20.688 158.409 22.832C158.409 24.976 158.697 26.52 159.273 27.464C159.865 28.392 160.617 28.856 161.529 28.856C162.441 28.856 163.185 28.392 163.761 27.464C164.353 26.52 164.649 24.976 164.649 22.832C164.649 20.688 164.353 19.144 163.761 18.2C163.185 17.256 162.441 16.784 161.529 16.784ZM176.862 16.304C177.47 16.304 177.974 16.384 178.374 16.544C178.79 16.704 179.134 16.928 179.406 17.216C179.71 17.536 179.926 17.936 180.054 18.416C180.182 18.896 180.246 19.544 180.246 20.36V26.768C180.246 27.44 180.382 27.896 180.654 28.136C180.942 28.376 181.414 28.496 182.07 28.496V29C181.798 28.984 181.382 28.968 180.822 28.952C180.262 28.92 179.718 28.904 179.19 28.904C178.662 28.904 178.142 28.92 177.63 28.952C177.134 28.968 176.758 28.984 176.502 29V28.496C177.078 28.496 177.486 28.376 177.726 28.136C177.966 27.896 178.086 27.44 178.086 26.768V19.832C178.086 19.336 178.046 18.88 177.966 18.464C177.886 18.048 177.702 17.712 177.414 17.456C177.142 17.2 176.718 17.072 176.142 17.072C175.47 17.072 174.878 17.264 174.366 17.648C173.87 18.032 173.478 18.56 173.19 19.232C172.918 19.888 172.782 20.624 172.782 21.44V26.768C172.782 27.44 172.902 27.896 173.142 28.136C173.382 28.376 173.79 28.496 174.366 28.496V29C174.11 28.984 173.726 28.968 173.214 28.952C172.718 28.92 172.206 28.904 171.678 28.904C171.15 28.904 170.606 28.92 170.046 28.952C169.486 28.968 169.07 28.984 168.798 29V28.496C169.454 28.496 169.918 28.376 170.19 28.136C170.478 27.896 170.622 27.44 170.622 26.768V19.256C170.622 18.536 170.494 18.008 170.238 17.672C169.982 17.32 169.502 17.144 168.798 17.144V16.64C169.31 16.688 169.806 16.712 170.286 16.712C170.75 16.712 171.19 16.688 171.606 16.64C172.038 16.576 172.43 16.488 172.782 16.376V19.208C173.198 18.12 173.774 17.368 174.51 16.952C175.262 16.52 176.046 16.304 176.862 16.304ZM197.302 11.672C198.358 11.672 199.222 11.832 199.894 12.152C200.582 12.456 201.19 12.816 201.718 13.232C202.038 13.472 202.278 13.504 202.438 13.328C202.614 13.136 202.734 12.696 202.798 12.008H203.35C203.318 12.6 203.294 13.32 203.278 14.168C203.262 15.016 203.254 16.136 203.254 17.528H202.702C202.59 16.84 202.486 16.296 202.39 15.896C202.294 15.48 202.174 15.128 202.03 14.84C201.902 14.552 201.726 14.264 201.502 13.976C201.006 13.32 200.382 12.848 199.63 12.56C198.878 12.256 198.086 12.104 197.254 12.104C196.47 12.104 195.758 12.304 195.118 12.704C194.494 13.088 193.95 13.648 193.486 14.384C193.038 15.12 192.686 16.008 192.43 17.048C192.19 18.088 192.07 19.256 192.07 20.552C192.07 21.896 192.206 23.088 192.478 24.128C192.75 25.152 193.126 26.016 193.606 26.72C194.102 27.424 194.678 27.96 195.334 28.328C196.006 28.68 196.726 28.856 197.494 28.856C198.214 28.856 198.966 28.712 199.75 28.424C200.534 28.136 201.15 27.672 201.598 27.032C201.95 26.568 202.19 26.064 202.318 25.52C202.462 24.976 202.59 24.216 202.702 23.24H203.254C203.254 24.696 203.262 25.872 203.278 26.768C203.294 27.648 203.318 28.392 203.35 29H202.798C202.734 28.312 202.622 27.88 202.462 27.704C202.318 27.528 202.07 27.552 201.718 27.776C201.126 28.192 200.494 28.56 199.822 28.88C199.166 29.184 198.318 29.336 197.278 29.336C195.758 29.336 194.422 28.992 193.27 28.304C192.134 27.616 191.246 26.624 190.606 25.328C189.982 24.032 189.67 22.472 189.67 20.648C189.67 18.856 189.998 17.288 190.654 15.944C191.31 14.6 192.206 13.552 193.342 12.8C194.494 12.048 195.814 11.672 197.302 11.672ZM211.498 16.304C212.522 16.304 213.442 16.528 214.258 16.976C215.074 17.424 215.722 18.128 216.202 19.088C216.698 20.048 216.946 21.296 216.946 22.832C216.946 24.368 216.698 25.616 216.202 26.576C215.722 27.52 215.074 28.216 214.258 28.664C213.442 29.112 212.522 29.336 211.498 29.336C210.49 29.336 209.57 29.112 208.738 28.664C207.922 28.216 207.266 27.52 206.77 26.576C206.29 25.616 206.05 24.368 206.05 22.832C206.05 21.296 206.29 20.048 206.77 19.088C207.266 18.128 207.922 17.424 208.738 16.976C209.57 16.528 210.49 16.304 211.498 16.304ZM211.498 16.784C210.586 16.784 209.834 17.256 209.242 18.2C208.666 19.144 208.378 20.688 208.378 22.832C208.378 24.976 208.666 26.52 209.242 27.464C209.834 28.392 210.586 28.856 211.498 28.856C212.41 28.856 213.154 28.392 213.73 27.464C214.322 26.52 214.618 24.976 214.618 22.832C214.618 20.688 214.322 19.144 213.73 18.2C213.154 17.256 212.41 16.784 211.498 16.784ZM226.83 16.304C227.438 16.304 227.942 16.384 228.342 16.544C228.758 16.704 229.102 16.928 229.374 17.216C229.678 17.536 229.894 17.936 230.022 18.416C230.15 18.896 230.214 19.544 230.214 20.36V26.768C230.214 27.44 230.35 27.896 230.622 28.136C230.91 28.376 231.382 28.496 232.038 28.496V29C231.766 28.984 231.35 28.968 230.79 28.952C230.23 28.92 229.686 28.904 229.158 28.904C228.63 28.904 228.11 28.92 227.598 28.952C227.102 28.968 226.726 28.984 226.47 29V28.496C227.046 28.496 227.454 28.376 227.694 28.136C227.934 27.896 228.054 27.44 228.054 26.768V19.832C228.054 19.336 228.014 18.88 227.934 18.464C227.854 18.048 227.67 17.712 227.382 17.456C227.11 17.2 226.686 17.072 226.11 17.072C225.438 17.072 224.846 17.264 224.334 17.648C223.838 18.032 223.446 18.56 223.158 19.232C222.886 19.888 222.75 20.624 222.75 21.44V26.768C222.75 27.44 222.87 27.896 223.11 28.136C223.35 28.376 223.758 28.496 224.334 28.496V29C224.078 28.984 223.694 28.968 223.182 28.952C222.686 28.92 222.174 28.904 221.646 28.904C221.118 28.904 220.574 28.92 220.014 28.952C219.454 28.968 219.038 28.984 218.766 29V28.496C219.422 28.496 219.886 28.376 220.158 28.136C220.446 27.896 220.59 27.44 220.59 26.768V19.256C220.59 18.536 220.462 18.008 220.206 17.672C219.95 17.32 219.47 17.144 218.766 17.144V16.64C219.278 16.688 219.774 16.712 220.254 16.712C220.718 16.712 221.158 16.688 221.574 16.64C222.006 16.576 222.398 16.488 222.75 16.376V19.208C223.166 18.12 223.742 17.368 224.478 16.952C225.23 16.52 226.014 16.304 226.83 16.304ZM236.951 12.656V16.664H240.503V17.144H236.951V26.432C236.951 27.184 237.087 27.712 237.359 28.016C237.631 28.32 238.007 28.472 238.487 28.472C238.967 28.472 239.383 28.28 239.735 27.896C240.087 27.496 240.391 26.832 240.647 25.904L241.127 26.024C240.967 26.952 240.647 27.736 240.167 28.376C239.703 29.016 238.983 29.336 238.007 29.336C237.463 29.336 237.015 29.264 236.663 29.12C236.311 28.992 235.999 28.8 235.727 28.544C235.375 28.176 235.127 27.736 234.983 27.224C234.855 26.712 234.791 26.032 234.791 25.184V17.144H232.487V16.664H234.791V12.992C235.191 12.976 235.575 12.944 235.943 12.896C236.311 12.848 236.647 12.768 236.951 12.656ZM249.035 16.304C249.467 16.304 249.843 16.392 250.163 16.568C250.499 16.744 250.755 16.976 250.931 17.264C251.123 17.536 251.219 17.848 251.219 18.2C251.219 18.6 251.091 18.952 250.835 19.256C250.595 19.56 250.267 19.712 249.851 19.712C249.515 19.712 249.219 19.608 248.963 19.4C248.707 19.176 248.579 18.864 248.579 18.464C248.579 18.16 248.659 17.904 248.819 17.696C248.995 17.472 249.187 17.296 249.395 17.168C249.283 17.008 249.115 16.928 248.891 16.928C248.395 16.928 247.939 17.08 247.523 17.384C247.107 17.672 246.755 18.048 246.467 18.512C246.179 18.976 245.955 19.472 245.795 20C245.635 20.512 245.555 20.992 245.555 21.44V26.528C245.555 27.312 245.779 27.84 246.227 28.112C246.691 28.368 247.315 28.496 248.099 28.496V29C247.731 28.984 247.211 28.968 246.539 28.952C245.867 28.92 245.155 28.904 244.403 28.904C243.859 28.904 243.315 28.92 242.771 28.952C242.243 28.968 241.843 28.984 241.571 29V28.496C242.227 28.496 242.691 28.376 242.963 28.136C243.251 27.896 243.395 27.44 243.395 26.768V19.256C243.395 18.536 243.267 18.008 243.011 17.672C242.755 17.32 242.275 17.144 241.571 17.144V16.64C242.083 16.688 242.579 16.712 243.059 16.712C243.523 16.712 243.963 16.688 244.379 16.64C244.811 16.576 245.203 16.488 245.555 16.376V19.376C245.731 18.912 245.979 18.448 246.299 17.984C246.635 17.504 247.035 17.104 247.499 16.784C247.963 16.464 248.475 16.304 249.035 16.304ZM255.667 29.168C255.011 29.168 254.443 29.048 253.963 28.808C253.483 28.552 253.115 28.2 252.859 27.752C252.619 27.304 252.499 26.784 252.499 26.192C252.499 25.488 252.659 24.912 252.979 24.464C253.315 24.016 253.739 23.656 254.251 23.384C254.763 23.112 255.299 22.888 255.859 22.712C256.435 22.52 256.979 22.344 257.491 22.184C258.003 22.008 258.419 21.808 258.739 21.584C259.075 21.36 259.243 21.064 259.243 20.696V19.208C259.243 18.536 259.139 18.024 258.931 17.672C258.739 17.32 258.475 17.088 258.139 16.976C257.803 16.848 257.427 16.784 257.011 16.784C256.611 16.784 256.179 16.84 255.715 16.952C255.267 17.064 254.907 17.296 254.635 17.648C254.939 17.712 255.203 17.872 255.427 18.128C255.651 18.384 255.763 18.712 255.763 19.112C255.763 19.512 255.635 19.832 255.379 20.072C255.123 20.296 254.795 20.408 254.395 20.408C253.931 20.408 253.587 20.264 253.363 19.976C253.155 19.672 253.051 19.336 253.051 18.968C253.051 18.552 253.155 18.216 253.363 17.96C253.571 17.704 253.835 17.464 254.155 17.24C254.523 16.984 254.995 16.768 255.571 16.592C256.163 16.4 256.827 16.304 257.562 16.304C258.219 16.304 258.779 16.384 259.243 16.544C259.707 16.688 260.091 16.904 260.395 17.192C260.811 17.576 261.083 18.048 261.211 18.608C261.339 19.152 261.403 19.808 261.403 20.576V27.248C261.403 27.648 261.459 27.936 261.571 28.112C261.699 28.288 261.891 28.376 262.147 28.376C262.323 28.376 262.491 28.336 262.651 28.256C262.811 28.176 263.003 28.048 263.227 27.872L263.491 28.28C263.155 28.536 262.835 28.752 262.531 28.928C262.227 29.088 261.819 29.168 261.307 29.168C260.843 29.168 260.459 29.088 260.155 28.928C259.851 28.768 259.619 28.536 259.459 28.232C259.315 27.912 259.243 27.512 259.243 27.032C258.811 27.752 258.291 28.288 257.683 28.64C257.091 28.992 256.419 29.168 255.667 29.168ZM256.531 28.208C257.059 28.208 257.547 28.056 257.995 27.752C258.459 27.448 258.875 26.992 259.243 26.384V21.68C259.051 21.952 258.771 22.184 258.403 22.376C258.035 22.552 257.635 22.736 257.203 22.928C256.771 23.104 256.355 23.32 255.955 23.576C255.571 23.816 255.251 24.136 254.995 24.536C254.739 24.936 254.611 25.456 254.611 26.096C254.611 26.736 254.779 27.248 255.115 27.632C255.467 28.016 255.939 28.208 256.531 28.208Z" fill="white"/>
<defs>
<linearGradient id="paint0_linear_13_8" x1="32.7536" y1="7.50725" x2="45.9674" y2="33.3955" gradientUnits="userSpaceOnUse">
<stop stop-color="#FF8A00"/>
<stop offset="1" stop-color="#CBC085"/>
</linearGradient>
</defs>
</svg>
