<svg width="294" height="66" viewBox="0 0 294 66" fill="none" xmlns="http://www.w3.org/2000/svg">
<rect width="294" height="66" rx="15" fill="#252525"/>
<path d="M36.4493 32.4855H54.5652C54.8551 32.4855 55 32.4855 55 32.2319V31.7246V31.7246C55 31.4216 54.5602 31.4367 54.2665 31.362C46.0883 29.2837 39.7027 23.8194 37.4458 16.6724C37.3623 16.4082 37.1721 16.1894 36.9182 16.0783V16.0783C36.8001 16.0267 36.6726 16 36.5437 16H36.3043C36.1594 16 36.0145 16.1268 36.0145 16.3804V32.2319C36.0145 32.3587 36.0145 32.4855 36.3043 32.4855H36.4493ZM36.4493 51H36.8093C36.9509 51 37.0877 50.9486 37.1943 50.8553V50.8553C37.2757 50.7841 37.3356 50.6915 37.3685 50.5884C39.7071 43.2533 46.0959 37.5282 54.467 35.5843C54.6234 35.5479 54.7635 35.4589 54.8608 35.3312V35.3312C54.9511 35.2127 55 35.0679 55 34.9189V34.7681C55 34.6413 54.8551 34.3877 54.5652 34.3877H36.7337C36.5545 34.3877 36.3855 34.4714 36.2769 34.6139V34.6139C36.2007 34.7139 36.1594 34.8362 36.1594 34.962V50.6196C36.1594 50.8732 36.1594 51 36.4493 51ZM32.9404 50.8976C33.0554 50.9647 33.1861 51 33.3191 51H33.5507C33.6957 51 33.8406 50.8732 33.8406 50.6196V34.7681C33.8406 34.6413 33.8406 34.3877 33.5507 34.3877H15.4348C15.1449 34.3877 15 34.6413 15 34.7681V35.2754V35.2754C15 35.5786 15.4402 35.5611 15.735 35.632C23.9624 37.6087 30.3754 43.2447 32.5951 50.4586C32.6518 50.6428 32.774 50.8005 32.9404 50.8976V50.8976ZM15.4348 32.4855H33.5507C33.6957 32.4855 33.8406 32.4855 33.8406 32.2319V16.3804C33.8406 16.1268 33.8406 16 33.5507 16H32.971V16C32.6691 16 32.6366 16.4007 32.5391 16.6864C30.1231 23.7716 23.6587 29.493 15.5319 31.415C15.376 31.4519 15.2367 31.5408 15.1396 31.6683V31.6683C15.049 31.7871 15 31.9324 15 32.0818V32.2319C15 32.3587 15.1449 32.4855 15.4348 32.4855Z" fill="url(#paint0_linear_30_2)"/>
<path d="M76.5 41.5V41C77.0667 40.9667 77.4917 40.9 77.775 40.8C78.075 40.7 78.275 40.5 78.375 40.2C78.475 39.9 78.525 39.45 78.525 38.85V26.45C78.525 25.8333 78.475 25.3833 78.375 25.1C78.275 24.8 78.075 24.6 77.775 24.5C77.4917 24.3833 77.0667 24.3167 76.5 24.3V23.8C76.8833 23.8167 77.3667 23.8333 77.95 23.85C78.5333 23.8667 79.1083 23.875 79.675 23.875C80.325 23.875 80.9333 23.8667 81.5 23.85C82.0667 23.8333 82.525 23.8167 82.875 23.8V24.3C82.3083 24.3167 81.875 24.3833 81.575 24.5C81.2917 24.6 81.1 24.8 81 25.1C80.9 25.3833 80.85 25.8333 80.85 26.45V38.85C80.85 39.45 80.9 39.9 81 40.2C81.1 40.5 81.2917 40.7 81.575 40.8C81.875 40.9 82.3083 40.9667 82.875 41V41.5C82.525 41.4667 82.0667 41.45 81.5 41.45C80.9333 41.4333 80.325 41.425 79.675 41.425C79.1083 41.425 78.5333 41.4333 77.95 41.45C77.3667 41.45 76.8833 41.4667 76.5 41.5ZM66.05 41.5V41C66.6167 40.9667 67.0417 40.9 67.325 40.8C67.625 40.7 67.825 40.5 67.925 40.2C68.025 39.9 68.075 39.45 68.075 38.85V26.45C68.075 25.8333 68.025 25.3833 67.925 25.1C67.825 24.8 67.625 24.6 67.325 24.5C67.0417 24.3833 66.6167 24.3167 66.05 24.3V23.8C66.4 23.8167 66.8583 23.8333 67.425 23.85C67.9917 23.8667 68.6 23.875 69.25 23.875C69.8333 23.875 70.4083 23.8667 70.975 23.85C71.5583 23.8333 72.0417 23.8167 72.425 23.8V24.3C71.8583 24.3167 71.425 24.3833 71.125 24.5C70.8417 24.6 70.65 24.8 70.55 25.1C70.45 25.3833 70.4 25.8333 70.4 26.45V38.85C70.4 39.45 70.45 39.9 70.55 40.2C70.65 40.5 70.8417 40.7 71.125 40.8C71.425 40.9 71.8583 40.9667 72.425 41V41.5C72.0417 41.4667 71.5583 41.45 70.975 41.45C70.4083 41.4333 69.8333 41.425 69.25 41.425C68.6 41.425 67.9917 41.4333 67.425 41.45C66.8583 41.45 66.4 41.4667 66.05 41.5ZM69.525 32.85V32.35H79.4V32.85H69.525ZM87.4959 22.375C87.9292 22.375 88.3042 22.5333 88.6209 22.85C88.9376 23.1667 89.0959 23.5417 89.0959 23.975C89.0959 24.4083 88.9376 24.7833 88.6209 25.1C88.3042 25.4167 87.9292 25.575 87.4959 25.575C87.0626 25.575 86.6876 25.4167 86.3709 25.1C86.0542 24.7833 85.8959 24.4083 85.8959 23.975C85.8959 23.5417 86.0542 23.1667 86.3709 22.85C86.6876 22.5333 87.0626 22.375 87.4959 22.375ZM88.7959 28.35V39.175C88.7959 39.875 88.9376 40.35 89.2209 40.6C89.5209 40.85 90.0126 40.975 90.6959 40.975V41.5C90.4126 41.4833 89.9792 41.4667 89.3959 41.45C88.8292 41.4167 88.2542 41.4 87.6709 41.4C87.1042 41.4 86.5292 41.4167 85.9459 41.45C85.3626 41.4667 84.9292 41.4833 84.6459 41.5V40.975C85.3292 40.975 85.8126 40.85 86.0959 40.6C86.3959 40.35 86.5459 39.875 86.5459 39.175V31.35C86.5459 30.6 86.4126 30.05 86.1459 29.7C85.8792 29.3333 85.3792 29.15 84.6459 29.15V28.625C85.1792 28.675 85.6959 28.7 86.1959 28.7C86.6792 28.7 87.1376 28.675 87.5709 28.625C88.0209 28.5583 88.4292 28.4667 88.7959 28.35ZM99.7451 28.275C100.195 28.275 100.587 28.3667 100.92 28.55C101.27 28.7333 101.537 28.975 101.72 29.275C101.92 29.5583 102.02 29.8833 102.02 30.25C102.02 30.6667 101.887 31.0333 101.62 31.35C101.37 31.6667 101.028 31.825 100.595 31.825C100.245 31.825 99.9368 31.7167 99.6701 31.5C99.4035 31.2667 99.2701 30.9417 99.2701 30.525C99.2701 30.2083 99.3535 29.9417 99.5201 29.725C99.7035 29.4917 99.9035 29.3083 100.12 29.175C100.003 29.0083 99.8285 28.925 99.5951 28.925C99.0785 28.925 98.6035 29.0833 98.1701 29.4C97.7368 29.7 97.3701 30.0917 97.0701 30.575C96.7701 31.0583 96.5368 31.575 96.3701 32.125C96.2035 32.6583 96.1201 33.1583 96.1201 33.625V38.925C96.1201 39.7417 96.3535 40.2917 96.8201 40.575C97.3035 40.8417 97.9535 40.975 98.7701 40.975V41.5C98.3868 41.4833 97.8451 41.4667 97.1451 41.45C96.4451 41.4167 95.7035 41.4 94.9201 41.4C94.3535 41.4 93.7868 41.4167 93.2201 41.45C92.6701 41.4667 92.2535 41.4833 91.9701 41.5V40.975C92.6535 40.975 93.1368 40.85 93.4201 40.6C93.7201 40.35 93.8701 39.875 93.8701 39.175V31.35C93.8701 30.6 93.7368 30.05 93.4701 29.7C93.2035 29.3333 92.7035 29.15 91.9701 29.15V28.625C92.5035 28.675 93.0201 28.7 93.5201 28.7C94.0035 28.7 94.4618 28.675 94.8951 28.625C95.3451 28.5583 95.7535 28.4667 96.1201 28.35V31.475C96.3035 30.9917 96.5618 30.5083 96.8951 30.025C97.2451 29.525 97.6618 29.1083 98.1451 28.775C98.6285 28.4417 99.1618 28.275 99.7451 28.275ZM108.69 28.275C110.156 28.275 111.298 28.725 112.115 29.625C112.948 30.5083 113.365 31.8917 113.365 33.775H104.54L104.515 33.3H110.965C110.998 32.4833 110.931 31.7333 110.765 31.05C110.598 30.35 110.331 29.7917 109.965 29.375C109.615 28.9583 109.156 28.75 108.59 28.75C107.823 28.75 107.14 29.1333 106.54 29.9C105.956 30.6667 105.606 31.8833 105.49 33.55L105.565 33.65C105.531 33.9 105.506 34.175 105.49 34.475C105.473 34.775 105.465 35.075 105.465 35.375C105.465 36.5083 105.648 37.4833 106.015 38.3C106.381 39.1167 106.856 39.7417 107.44 40.175C108.04 40.5917 108.656 40.8 109.29 40.8C109.79 40.8 110.265 40.725 110.715 40.575C111.165 40.4083 111.581 40.1417 111.965 39.775C112.348 39.4083 112.681 38.9167 112.965 38.3L113.465 38.5C113.281 39.05 112.981 39.5833 112.565 40.1C112.148 40.6167 111.623 41.0417 110.99 41.375C110.356 41.6917 109.623 41.85 108.79 41.85C107.59 41.85 106.556 41.575 105.69 41.025C104.84 40.475 104.181 39.7167 103.715 38.75C103.265 37.7667 103.04 36.6417 103.04 35.375C103.04 33.9083 103.273 32.65 103.74 31.6C104.206 30.5333 104.865 29.7167 105.715 29.15C106.565 28.5667 107.556 28.275 108.69 28.275ZM129.737 28.275C130.32 28.275 130.828 28.3583 131.262 28.525C131.695 28.6917 132.053 28.925 132.337 29.225C132.653 29.5583 132.87 29.9917 132.987 30.525C133.103 31.0583 133.162 31.7167 133.162 32.5V39.175C133.162 39.875 133.303 40.35 133.587 40.6C133.887 40.85 134.378 40.975 135.062 40.975V41.5C134.778 41.4833 134.345 41.4667 133.762 41.45C133.178 41.4167 132.612 41.4 132.062 41.4C131.512 41.4 130.97 41.4167 130.437 41.45C129.92 41.4667 129.528 41.4833 129.262 41.5V40.975C129.862 40.975 130.287 40.85 130.537 40.6C130.787 40.35 130.912 39.875 130.912 39.175V31.95C130.912 31.4333 130.878 30.9583 130.812 30.525C130.745 30.0917 130.578 29.7417 130.312 29.475C130.045 29.2083 129.612 29.075 129.012 29.075C128.362 29.075 127.778 29.275 127.262 29.675C126.762 30.075 126.362 30.625 126.062 31.325C125.778 32.0083 125.637 32.775 125.637 33.625V39.175C125.637 39.875 125.762 40.35 126.012 40.6C126.262 40.85 126.687 40.975 127.287 40.975V41.5C127.02 41.4833 126.62 41.4667 126.087 41.45C125.57 41.4167 125.037 41.4 124.487 41.4C123.937 41.4 123.37 41.4167 122.787 41.45C122.203 41.4667 121.77 41.4833 121.487 41.5V40.975C122.17 40.975 122.653 40.85 122.937 40.6C123.237 40.35 123.387 39.875 123.387 39.175V31.35C123.387 30.6 123.253 30.05 122.987 29.7C122.72 29.3333 122.22 29.15 121.487 29.15V28.625C122.02 28.675 122.537 28.7 123.037 28.7C123.52 28.7 123.978 28.675 124.412 28.625C124.862 28.5583 125.27 28.4667 125.637 28.35V31.3C126.07 30.2167 126.662 29.4417 127.412 28.975C128.162 28.5083 128.937 28.275 129.737 28.275ZM137.262 28.275C137.845 28.275 138.353 28.3583 138.787 28.525C139.22 28.6917 139.578 28.925 139.862 29.225C140.178 29.5583 140.395 29.9917 140.512 30.525C140.628 31.0583 140.687 31.7167 140.687 32.5V39.175C140.687 39.875 140.828 40.35 141.112 40.6C141.412 40.85 141.903 40.975 142.587 40.975V41.5C142.303 41.4833 141.87 41.4667 141.287 41.45C140.703 41.4167 140.137 41.4 139.587 41.4C139.037 41.4 138.495 41.4167 137.962 41.45C137.445 41.4667 137.053 41.4833 136.787 41.5V40.975C137.387 40.975 137.812 40.85 138.062 40.6C138.312 40.35 138.437 39.875 138.437 39.175V31.95C138.437 31.4333 138.403 30.9583 138.337 30.525C138.27 30.0917 138.103 29.7417 137.837 29.475C137.57 29.2083 137.137 29.075 136.537 29.075C135.887 29.075 135.303 29.275 134.787 29.675C134.287 30.075 133.887 30.6167 133.587 31.3C133.303 31.9833 133.162 32.75 133.162 33.6L133.087 31.275C133.537 30.125 134.145 29.3417 134.912 28.925C135.678 28.4917 136.462 28.275 137.262 28.275ZM149.754 28.275C151.221 28.275 152.362 28.725 153.179 29.625C154.012 30.5083 154.429 31.8917 154.429 33.775H145.604L145.579 33.3H152.029C152.062 32.4833 151.996 31.7333 151.829 31.05C151.662 30.35 151.396 29.7917 151.029 29.375C150.679 28.9583 150.221 28.75 149.654 28.75C148.887 28.75 148.204 29.1333 147.604 29.9C147.021 30.6667 146.671 31.8833 146.554 33.55L146.629 33.65C146.596 33.9 146.571 34.175 146.554 34.475C146.537 34.775 146.529 35.075 146.529 35.375C146.529 36.5083 146.712 37.4833 147.079 38.3C147.446 39.1167 147.921 39.7417 148.504 40.175C149.104 40.5917 149.721 40.8 150.354 40.8C150.854 40.8 151.329 40.725 151.779 40.575C152.229 40.4083 152.646 40.1417 153.029 39.775C153.412 39.4083 153.746 38.9167 154.029 38.3L154.529 38.5C154.346 39.05 154.046 39.5833 153.629 40.1C153.212 40.6167 152.687 41.0417 152.054 41.375C151.421 41.6917 150.687 41.85 149.854 41.85C148.654 41.85 147.621 41.575 146.754 41.025C145.904 40.475 145.246 39.7167 144.779 38.75C144.329 37.7667 144.104 36.6417 144.104 35.375C144.104 33.9083 144.337 32.65 144.804 31.6C145.271 30.5333 145.929 29.7167 146.779 29.15C147.629 28.5667 148.621 28.275 149.754 28.275ZM168.676 28.275C169.743 28.275 170.701 28.5083 171.551 28.975C172.401 29.4417 173.076 30.175 173.576 31.175C174.093 32.175 174.351 33.475 174.351 35.075C174.351 36.675 174.093 37.975 173.576 38.975C173.076 39.9583 172.401 40.6833 171.551 41.15C170.701 41.6167 169.743 41.85 168.676 41.85C167.626 41.85 166.668 41.6167 165.801 41.15C164.951 40.6833 164.268 39.9583 163.751 38.975C163.251 37.975 163.001 36.675 163.001 35.075C163.001 33.475 163.251 32.175 163.751 31.175C164.268 30.175 164.951 29.4417 165.801 28.975C166.668 28.5083 167.626 28.275 168.676 28.275ZM168.676 28.775C167.726 28.775 166.943 29.2667 166.326 30.25C165.726 31.2333 165.426 32.8417 165.426 35.075C165.426 37.3083 165.726 38.9167 166.326 39.9C166.943 40.8667 167.726 41.35 168.676 41.35C169.626 41.35 170.401 40.8667 171.001 39.9C171.618 38.9167 171.926 37.3083 171.926 35.075C171.926 32.8417 171.618 31.2333 171.001 30.25C170.401 29.2667 169.626 28.775 168.676 28.775ZM184.647 28.275C185.281 28.275 185.806 28.3583 186.222 28.525C186.656 28.6917 187.014 28.925 187.297 29.225C187.614 29.5583 187.839 29.975 187.972 30.475C188.106 30.975 188.172 31.65 188.172 32.5V39.175C188.172 39.875 188.314 40.35 188.597 40.6C188.897 40.85 189.389 40.975 190.072 40.975V41.5C189.789 41.4833 189.356 41.4667 188.772 41.45C188.189 41.4167 187.622 41.4 187.072 41.4C186.522 41.4 185.981 41.4167 185.447 41.45C184.931 41.4667 184.539 41.4833 184.272 41.5V40.975C184.872 40.975 185.297 40.85 185.547 40.6C185.797 40.35 185.922 39.875 185.922 39.175V31.95C185.922 31.4333 185.881 30.9583 185.797 30.525C185.714 30.0917 185.522 29.7417 185.222 29.475C184.939 29.2083 184.497 29.075 183.897 29.075C183.197 29.075 182.581 29.275 182.047 29.675C181.531 30.075 181.122 30.625 180.822 31.325C180.539 32.0083 180.397 32.775 180.397 33.625V39.175C180.397 39.875 180.522 40.35 180.772 40.6C181.022 40.85 181.447 40.975 182.047 40.975V41.5C181.781 41.4833 181.381 41.4667 180.847 41.45C180.331 41.4167 179.797 41.4 179.247 41.4C178.697 41.4 178.131 41.4167 177.547 41.45C176.964 41.4667 176.531 41.4833 176.247 41.5V40.975C176.931 40.975 177.414 40.85 177.697 40.6C177.997 40.35 178.147 39.875 178.147 39.175V31.35C178.147 30.6 178.014 30.05 177.747 29.7C177.481 29.3333 176.981 29.15 176.247 29.15V28.625C176.781 28.675 177.297 28.7 177.797 28.7C178.281 28.7 178.739 28.675 179.172 28.625C179.622 28.5583 180.031 28.4667 180.397 28.35V31.3C180.831 30.1667 181.431 29.3833 182.197 28.95C182.981 28.5 183.797 28.275 184.647 28.275ZM205.94 23.45C207.04 23.45 207.94 23.6167 208.64 23.95C209.357 24.2667 209.99 24.6417 210.54 25.075C210.873 25.325 211.123 25.3583 211.29 25.175C211.473 24.975 211.598 24.5167 211.665 23.8H212.24C212.207 24.4167 212.182 25.1667 212.165 26.05C212.148 26.9333 212.14 28.1 212.14 29.55H211.565C211.448 28.8333 211.34 28.2667 211.24 27.85C211.14 27.4167 211.015 27.05 210.865 26.75C210.732 26.45 210.548 26.15 210.315 25.85C209.798 25.1667 209.148 24.675 208.365 24.375C207.582 24.0583 206.757 23.9 205.89 23.9C205.073 23.9 204.332 24.1083 203.665 24.525C203.015 24.925 202.448 25.5083 201.965 26.275C201.498 27.0417 201.132 27.9667 200.865 29.05C200.615 30.1333 200.49 31.35 200.49 32.7C200.49 34.1 200.632 35.3417 200.915 36.425C201.198 37.4917 201.59 38.3917 202.09 39.125C202.607 39.8583 203.207 40.4167 203.89 40.8C204.59 41.1667 205.34 41.35 206.14 41.35C206.89 41.35 207.673 41.2 208.49 40.9C209.307 40.6 209.948 40.1167 210.415 39.45C210.782 38.9667 211.032 38.4417 211.165 37.875C211.315 37.3083 211.448 36.5167 211.565 35.5H212.14C212.14 37.0167 212.148 38.2417 212.165 39.175C212.182 40.0917 212.207 40.8667 212.24 41.5H211.665C211.598 40.7833 211.482 40.3333 211.315 40.15C211.165 39.9667 210.907 39.9917 210.54 40.225C209.923 40.6583 209.265 41.0417 208.565 41.375C207.882 41.6917 206.998 41.85 205.915 41.85C204.332 41.85 202.94 41.4917 201.74 40.775C200.557 40.0583 199.632 39.025 198.965 37.675C198.315 36.325 197.99 34.7 197.99 32.8C197.99 30.9333 198.332 29.3 199.015 27.9C199.698 26.5 200.632 25.4083 201.815 24.625C203.015 23.8417 204.39 23.45 205.94 23.45ZM220.727 28.275C221.794 28.275 222.752 28.5083 223.602 28.975C224.452 29.4417 225.127 30.175 225.627 31.175C226.144 32.175 226.402 33.475 226.402 35.075C226.402 36.675 226.144 37.975 225.627 38.975C225.127 39.9583 224.452 40.6833 223.602 41.15C222.752 41.6167 221.794 41.85 220.727 41.85C219.677 41.85 218.719 41.6167 217.852 41.15C217.002 40.6833 216.319 39.9583 215.802 38.975C215.302 37.975 215.052 36.675 215.052 35.075C215.052 33.475 215.302 32.175 215.802 31.175C216.319 30.175 217.002 29.4417 217.852 28.975C218.719 28.5083 219.677 28.275 220.727 28.275ZM220.727 28.775C219.777 28.775 218.994 29.2667 218.377 30.25C217.777 31.2333 217.477 32.8417 217.477 35.075C217.477 37.3083 217.777 38.9167 218.377 39.9C218.994 40.8667 219.777 41.35 220.727 41.35C221.677 41.35 222.452 40.8667 223.052 39.9C223.669 38.9167 223.977 37.3083 223.977 35.075C223.977 32.8417 223.669 31.2333 223.052 30.25C222.452 29.2667 221.677 28.775 220.727 28.775ZM236.698 28.275C237.332 28.275 237.857 28.3583 238.273 28.525C238.707 28.6917 239.065 28.925 239.348 29.225C239.665 29.5583 239.89 29.975 240.023 30.475C240.157 30.975 240.223 31.65 240.223 32.5V39.175C240.223 39.875 240.365 40.35 240.648 40.6C240.948 40.85 241.44 40.975 242.123 40.975V41.5C241.84 41.4833 241.407 41.4667 240.823 41.45C240.24 41.4167 239.673 41.4 239.123 41.4C238.573 41.4 238.032 41.4167 237.498 41.45C236.982 41.4667 236.59 41.4833 236.323 41.5V40.975C236.923 40.975 237.348 40.85 237.598 40.6C237.848 40.35 237.973 39.875 237.973 39.175V31.95C237.973 31.4333 237.932 30.9583 237.848 30.525C237.765 30.0917 237.573 29.7417 237.273 29.475C236.99 29.2083 236.548 29.075 235.948 29.075C235.248 29.075 234.632 29.275 234.098 29.675C233.582 30.075 233.173 30.625 232.873 31.325C232.59 32.0083 232.448 32.775 232.448 33.625V39.175C232.448 39.875 232.573 40.35 232.823 40.6C233.073 40.85 233.498 40.975 234.098 40.975V41.5C233.832 41.4833 233.432 41.4667 232.898 41.45C232.382 41.4167 231.848 41.4 231.298 41.4C230.748 41.4 230.182 41.4167 229.598 41.45C229.015 41.4667 228.582 41.4833 228.298 41.5V40.975C228.982 40.975 229.465 40.85 229.748 40.6C230.048 40.35 230.198 39.875 230.198 39.175V31.35C230.198 30.6 230.065 30.05 229.798 29.7C229.532 29.3333 229.032 29.15 228.298 29.15V28.625C228.832 28.675 229.348 28.7 229.848 28.7C230.332 28.7 230.79 28.675 231.223 28.625C231.673 28.5583 232.082 28.4667 232.448 28.35V31.3C232.882 30.1667 233.482 29.3833 234.248 28.95C235.032 28.5 235.848 28.275 236.698 28.275ZM247.24 24.475V28.65H250.94V29.15H247.24V38.825C247.24 39.6083 247.382 40.1583 247.665 40.475C247.949 40.7917 248.34 40.95 248.84 40.95C249.34 40.95 249.774 40.75 250.14 40.35C250.507 39.9333 250.824 39.2417 251.09 38.275L251.59 38.4C251.424 39.3667 251.09 40.1833 250.59 40.85C250.107 41.5167 249.357 41.85 248.34 41.85C247.774 41.85 247.307 41.775 246.94 41.625C246.574 41.4917 246.249 41.2917 245.965 41.025C245.599 40.6417 245.34 40.1833 245.19 39.65C245.057 39.1167 244.99 38.4083 244.99 37.525V29.15H242.59V28.65H244.99V24.825C245.407 24.8083 245.807 24.775 246.19 24.725C246.574 24.675 246.924 24.5917 247.24 24.475ZM259.828 28.275C260.278 28.275 260.67 28.3667 261.003 28.55C261.353 28.7333 261.62 28.975 261.803 29.275C262.003 29.5583 262.103 29.8833 262.103 30.25C262.103 30.6667 261.97 31.0333 261.703 31.35C261.453 31.6667 261.111 31.825 260.678 31.825C260.328 31.825 260.02 31.7167 259.753 31.5C259.486 31.2667 259.353 30.9417 259.353 30.525C259.353 30.2083 259.436 29.9417 259.603 29.725C259.786 29.4917 259.986 29.3083 260.203 29.175C260.086 29.0083 259.911 28.925 259.678 28.925C259.161 28.925 258.686 29.0833 258.253 29.4C257.82 29.7 257.453 30.0917 257.153 30.575C256.853 31.0583 256.62 31.575 256.453 32.125C256.286 32.6583 256.203 33.1583 256.203 33.625V38.925C256.203 39.7417 256.436 40.2917 256.903 40.575C257.386 40.8417 258.036 40.975 258.853 40.975V41.5C258.47 41.4833 257.928 41.4667 257.228 41.45C256.528 41.4167 255.786 41.4 255.003 41.4C254.436 41.4 253.87 41.4167 253.303 41.45C252.753 41.4667 252.336 41.4833 252.053 41.5V40.975C252.736 40.975 253.22 40.85 253.503 40.6C253.803 40.35 253.953 39.875 253.953 39.175V31.35C253.953 30.6 253.82 30.05 253.553 29.7C253.286 29.3333 252.786 29.15 252.053 29.15V28.625C252.586 28.675 253.103 28.7 253.603 28.7C254.086 28.7 254.545 28.675 254.978 28.625C255.428 28.5583 255.836 28.4667 256.203 28.35V31.475C256.386 30.9917 256.645 30.5083 256.978 30.025C257.328 29.525 257.745 29.1083 258.228 28.775C258.711 28.4417 259.245 28.275 259.828 28.275ZM266.736 41.675C266.053 41.675 265.461 41.55 264.961 41.3C264.461 41.0333 264.078 40.6667 263.811 40.2C263.561 39.7333 263.436 39.1917 263.436 38.575C263.436 37.8417 263.603 37.2417 263.936 36.775C264.286 36.3083 264.728 35.9333 265.261 35.65C265.794 35.3667 266.353 35.1333 266.936 34.95C267.536 34.75 268.103 34.5667 268.636 34.4C269.169 34.2167 269.603 34.0083 269.936 33.775C270.286 33.5417 270.461 33.2333 270.461 32.85V31.3C270.461 30.6 270.353 30.0667 270.136 29.7C269.936 29.3333 269.661 29.0917 269.311 28.975C268.961 28.8417 268.569 28.775 268.136 28.775C267.719 28.775 267.269 28.8333 266.786 28.95C266.319 29.0667 265.944 29.3083 265.661 29.675C265.978 29.7417 266.253 29.9083 266.486 30.175C266.719 30.4417 266.836 30.7833 266.836 31.2C266.836 31.6167 266.703 31.95 266.436 32.2C266.169 32.4333 265.828 32.55 265.411 32.55C264.928 32.55 264.569 32.4 264.336 32.1C264.119 31.7833 264.011 31.4333 264.011 31.05C264.011 30.6167 264.119 30.2667 264.336 30C264.553 29.7333 264.828 29.4833 265.161 29.25C265.544 28.9833 266.036 28.7583 266.636 28.575C267.253 28.375 267.944 28.275 268.711 28.275C269.394 28.275 269.978 28.3583 270.461 28.525C270.944 28.675 271.344 28.9 271.661 29.2C272.094 29.6 272.378 30.0917 272.511 30.675C272.644 31.2417 272.711 31.925 272.711 32.725V39.675C272.711 40.0917 272.769 40.3917 272.886 40.575C273.019 40.7583 273.219 40.85 273.486 40.85C273.669 40.85 273.844 40.8083 274.011 40.725C274.178 40.6417 274.378 40.5083 274.611 40.325L274.886 40.75C274.536 41.0167 274.203 41.2417 273.886 41.425C273.569 41.5917 273.144 41.675 272.611 41.675C272.128 41.675 271.728 41.5917 271.411 41.425C271.094 41.2583 270.853 41.0167 270.686 40.7C270.536 40.3667 270.461 39.95 270.461 39.45C270.011 40.2 269.469 40.7583 268.836 41.125C268.219 41.4917 267.519 41.675 266.736 41.675ZM267.636 40.675C268.186 40.675 268.694 40.5167 269.161 40.2C269.644 39.8833 270.078 39.4083 270.461 38.775V33.875C270.261 34.1583 269.969 34.4 269.586 34.6C269.203 34.7833 268.786 34.975 268.336 35.175C267.886 35.3583 267.453 35.5833 267.036 35.85C266.636 36.1 266.303 36.4333 266.036 36.85C265.769 37.2667 265.636 37.8083 265.636 38.475C265.636 39.1417 265.811 39.675 266.161 40.075C266.528 40.475 267.019 40.675 267.636 40.675Z" fill="white"/>
<defs>
<linearGradient id="paint0_linear_30_2" x1="30.942" y1="16.6341" x2="47.4593" y2="48.9944" gradientUnits="userSpaceOnUse">
<stop stop-color="#FF8A00"/>
<stop offset="1" stop-color="#CBC085"/>
</linearGradient>
</defs>
</svg>
