<svg width="50" height="50" viewBox="0 0 50 50" fill="none" xmlns="http://www.w3.org/2000/svg">
<rect width="50" height="50" rx="15" fill="#252525"/>
<path d="M26.1594 24.1884H40.6522C40.8841 24.1884 41 24.1884 41 23.9855V23.5797V23.5797C41 23.3372 40.6482 23.3493 40.4132 23.2896C33.8706 21.627 28.7621 17.2555 26.9566 11.5379C26.8899 11.3265 26.7377 11.1515 26.5345 11.0627V11.0627C26.4401 11.0213 26.3381 11 26.235 11H26.0435C25.9275 11 25.8116 11.1014 25.8116 11.3043V23.9855C25.8116 24.087 25.8116 24.1884 26.0435 24.1884H26.1594ZM26.1594 39H26.4474C26.5607 39 26.6702 38.9589 26.7555 38.8843V38.8843C26.8206 38.8273 26.8685 38.7532 26.8948 38.6707C28.7657 32.8026 33.8767 28.2226 40.5736 26.6674C40.6987 26.6383 40.8108 26.5671 40.8887 26.465V26.465C40.9609 26.3702 41 26.2543 41 26.1351V26.0145C41 25.913 40.8841 25.7101 40.6522 25.7101H26.387C26.2436 25.7101 26.1084 25.7771 26.0215 25.8911V25.8911C25.9606 25.9712 25.9275 26.069 25.9275 26.1696V38.6957C25.9275 38.8985 25.9275 39 26.1594 39ZM23.3523 38.9181C23.4443 38.9717 23.5488 39 23.6553 39H23.8406C23.9565 39 24.0725 38.8985 24.0725 38.6957V26.0145C24.0725 25.913 24.0725 25.7101 23.8406 25.7101H9.34783C9.11594 25.7101 9 25.913 9 26.0145V26.4203V26.4203C9 26.6628 9.35214 26.6489 9.58798 26.7056C16.1699 28.2869 21.3003 32.7958 23.0761 38.5669C23.1214 38.7142 23.2192 38.8404 23.3523 38.9181V38.9181ZM9.34783 24.1884H23.8406C23.9565 24.1884 24.0725 24.1884 24.0725 23.9855V11.3043C24.0725 11.1014 24.0725 11 23.8406 11H23.3768V11C23.1353 11 23.1093 11.3206 23.0313 11.5492C21.0984 17.2173 15.9269 21.7944 9.42554 23.332C9.30083 23.3615 9.18932 23.4327 9.11166 23.5346V23.5346C9.03923 23.6297 9 23.7459 9 23.8654V23.9855C9 24.087 9.11594 24.1884 9.34783 24.1884Z" fill="url(#paint0_linear_30_12)"/>
<defs>
<linearGradient id="paint0_linear_30_12" x1="21.7536" y1="11.5072" x2="34.9674" y2="37.3955" gradientUnits="userSpaceOnUse">
<stop stop-color="#FF8A00"/>
<stop offset="1" stop-color="#CBC085"/>
</linearGradient>
</defs>
</svg>
